# xmcd
#
# Track frame offsets:
#	150
#	9988
#	24576
#	41169
#	55812
#	61043
#	72376
#	81015
#	94304
#	105105
#
# Disc length: 1475 seconds
#
# Revision: 0
# Processed by: cddbd v1.5PL3 Copyright (c) Steve Scherf et al.
# Submitted via: dBpowerAMP V4.0
#
DISCID=7305c10a
DTITLE=Olivier Andu - Les chansons perdues
DYEAR=2002
DGENRE=Blues
TTITLE0=6:10 l.a.
TTITLE1=des couleuvres
TTITLE2=des couleuvres (version)
TTITLE3=filer (version)
TTITLE4=rendez-vous de l'autre côté du globe
TTITLE5=un chien fou
TTITLE6=yeti
TTITLE7=en crabes
TTITLE8=oh, pleine lune du kentucky
TTITLE9=billy
EXTD=Please buy this cd at www.olivierandu.net.  Thanks.
EXTT0=
EXTT1=
EXTT2=
EXTT3=
EXTT4=
EXTT5=
EXTT6=
EXTT7=
EXTT8=
EXTT9=
PLAYORDER=
